<svg xmlns="http://www.w3.org/2000/svg" width="1100" height="650" viewBox="0 0 1100 650" role="img" aria-labelledby="title desc"><title id="title">Receiver counts by band and time window</title><desc id="desc">Geographic and numerical comparison of WSPR reporting receivers and Reverse Beacon Network skimmers.</desc><style>text{font-family:Inter,system-ui,-apple-system,BlinkMacSystemFont,"Segoe UI",sans-serif;fill:#172026}.small{font-size:13px}.label{font-size:15px;font-weight:650}.heading{font-size:25px;font-weight:750}.subheading{font-size:17px;font-weight:650}.note{font-size:12px;fill:#52616b}.land{fill:#f1eee7;stroke:#aeb8bd;stroke-width:.55}.panel{fill:#fbfaf7;stroke:#cbd3d6;stroke-width:1}.grid{stroke:#e0e4e5;stroke-width:.6}.wspr{fill:#2d6cdf;fill-opacity:.34}.rbn{fill:#d45d00;fill-opacity:.82;stroke:#7f3700;stroke-width:.35}</style><defs></defs><rect width="100%" height="100%" fill="#ffffff"/><text class="heading" x="50" y="45">Distinct reporting calls by band</text><text class="note" x="50" y="68">WSPR calls observed in bounded windows versus active RBN nodes advertising each band.</text><line class="grid" x1="80" y1="545.0" x2="1030" y2="545.0"/><text class="note" x="68" y="549.0" text-anchor="end">0</text><line class="grid" x1="80" y1="474.4" x2="1030" y2="474.4"/><text class="note" x="68" y="478.4" text-anchor="end">300</text><line class="grid" x1="80" y1="403.9" x2="1030" y2="403.9"/><text class="note" x="68" y="407.9" text-anchor="end">600</text><line class="grid" x1="80" y1="333.3" x2="1030" y2="333.3"/><text class="note" x="68" y="337.3" text-anchor="end">900</text><line class="grid" x1="80" y1="262.7" x2="1030" y2="262.7"/><text class="note" x="68" y="266.7" text-anchor="end">1,200</text><line class="grid" x1="80" y1="192.1" x2="1030" y2="192.1"/><text class="note" x="68" y="196.1" text-anchor="end">1,500</text><line class="grid" x1="80" y1="121.6" x2="1030" y2="121.6"/><text class="note" x="68" y="125.6" text-anchor="end">1,800</text><rect x="124.3" y="352.6" width="48" height="192.4" rx="3" fill="#8fb5ff"/><text class="small" x="148.3" y="345.6" text-anchor="middle">818</text><rect x="184.3" y="313.5" width="48" height="231.5" rx="3" fill="#4e83e6"/><text class="small" x="208.3" y="306.5" text-anchor="middle">984</text><rect x="244.3" y="250.7" width="48" height="294.3" rx="3" fill="#174fae"/><text class="small" x="268.3" y="243.7" text-anchor="middle">1,251</text><rect x="304.3" y="502.7" width="48" height="42.3" rx="3" fill="#d45d00"/><text class="small" x="328.3" y="495.7" text-anchor="middle">180</text><text class="label" x="238.3" y="576" text-anchor="middle">40m</text><rect x="441.0" y="311.6" width="48" height="233.4" rx="3" fill="#8fb5ff"/><text class="small" x="465.0" y="304.6" text-anchor="middle">992</text><rect x="501.0" y="255.7" width="48" height="289.3" rx="3" fill="#4e83e6"/><text class="small" x="525.0" y="248.7" text-anchor="middle">1,230</text><rect x="561.0" y="152.1" width="48" height="392.9" rx="3" fill="#174fae"/><text class="small" x="585.0" y="145.1" text-anchor="middle">1,670</text><rect x="621.0" y="502.0" width="48" height="43.0" rx="3" fill="#d45d00"/><text class="small" x="645.0" y="495.0" text-anchor="middle">183</text><text class="label" x="555.0" y="576" text-anchor="middle">20m</text><rect x="757.7" y="417.3" width="48" height="127.7" rx="3" fill="#8fb5ff"/><text class="small" x="781.7" y="410.3" text-anchor="middle">543</text><rect x="817.7" y="393.5" width="48" height="151.5" rx="3" fill="#4e83e6"/><text class="small" x="841.7" y="386.5" text-anchor="middle">644</text><rect x="877.7" y="356.1" width="48" height="188.9" rx="3" fill="#174fae"/><text class="small" x="901.7" y="349.1" text-anchor="middle">803</text><rect x="937.7" y="503.4" width="48" height="41.6" rx="3" fill="#d45d00"/><text class="small" x="961.7" y="496.4" text-anchor="middle">177</text><text class="label" x="871.7" y="576" text-anchor="middle">15m</text><rect x="90" y="595" width="18" height="18" rx="2" fill="#8fb5ff"/><text class="small" x="115" y="609">WSPR 24 h</text><rect x="300" y="595" width="18" height="18" rx="2" fill="#4e83e6"/><text class="small" x="325" y="609">WSPR 72 h</text><rect x="510" y="595" width="18" height="18" rx="2" fill="#174fae"/><text class="small" x="535" y="609">WSPR 7 d</text><rect x="720" y="595" width="18" height="18" rx="2" fill="#d45d00"/><text class="small" x="745" y="609">RBN snapshot</text></svg>